<svg height="41" viewBox="0 0 345 41" width="345" xmlns="http://www.w3.org/2000/svg"><g fill="none" fill-rule="evenodd"><path d="m344 2.126v38.874h-344z" fill="#ffd300" fill-rule="nonzero"/><path d="m26.8713861 8.677c.954 0 1.696.795 1.696 1.802 0 .954-.742 1.696-1.696 1.696h-7.102v26.553c0 1.007-.795 1.802-1.802 1.802-.954 0-1.749-.795-1.749-1.802v-28.249c0-1.007.795-1.802 1.749-1.802zm-24.75100002-3.551c-1.007 0-1.802-.795-1.802-1.749 0-1.007.795-1.749 1.802-1.749h24.75100002c.954 0 1.696.742 1.696 1.749 0 .954-.742 1.749-1.696 1.749zm0 7.049c-1.007 0-1.802-.742-1.802-1.696 0-1.007.795-1.802 1.802-1.802h8.79800002c1.007 0 1.802.795 1.802 1.802v28.249c0 1.007-.795 1.802-1.802 1.802-.95400002 0-1.80200002-.795-1.80200002-1.802v-26.553zm42.85060232 26.606c0 .954-.795 1.749-1.749 1.749-1.007 0-1.802-.795-1.802-1.749v-35.457c0-.954.795-1.749 1.802-1.749.954 0 1.749.795 1.749 1.749zm-7.102 0c0 .954-.795 1.749-1.749 1.749-1.007 0-1.802-.795-1.802-1.749v-35.457c0-.954.795-1.749 1.802-1.749.954 0 1.749.795 1.749 1.749zm39.0346023-30.104c.954 0 1.696.795 1.696 1.802 0 .954-.742 1.696-1.696 1.696h-7.102v26.553c0 1.007-.795 1.802-1.802 1.802-.954 0-1.749-.795-1.749-1.802v-28.249c0-1.007.795-1.802 1.749-1.802zm-24.751-3.551c-1.007 0-1.802-.795-1.802-1.749 0-1.007.795-1.749 1.802-1.749h24.751c.954 0 1.696.742 1.696 1.749 0 .954-.742 1.749-1.696 1.749zm0 7.049c-1.007 0-1.802-.742-1.802-1.696 0-1.007.795-1.802 1.802-1.802h8.798c1.007 0 1.802.795 1.802 1.802v28.249c0 1.007-.795 1.802-1.802 1.802-.954 0-1.802-.795-1.802-1.802v-26.553zm39.2466023 13.78v-22.684c0-1.007.795-1.802 1.749-1.802 1.007 0 1.802.795 1.802 1.802v22.684c0 5.618 8.215 5.618 8.215 0v-22.684c0-1.007.742-1.802 1.802-1.802.954 0 1.749.795 1.749 1.802v22.684c0 10.335-15.317 10.335-15.317 0zm22.525.424c0 19.451-29.786 19.398-29.786 0v-23.108c0-1.007.795-1.802 1.749-1.802 1.007 0 1.802.795 1.802 1.802v23.108c0 14.84 22.737 14.84 22.737 0v-23.108c0-1.007.742-1.802 1.749-1.802.954 0 1.749.795 1.749 1.802zm28.275602-23.426c2.173.742 1.007 4.134-1.219 3.339-4.77-1.696-10.494-2.597-13.992 1.272-2.862 3.021-3.604 8.586.212 11.872 4.611 4.134 11.183 3.233 11.554 8.851.159 2.968-2.438 5.141-5.3 5.353-3.445.212-7.738-.636-11.236-3.18-1.855-1.325.212-4.187 2.067-2.862 4.081 2.968 11.236 3.498 10.918.848-.212-2.491-5.459-2.067-10.388-6.36-7.685-6.731-3.021-20.14 7.897-20.67 3.18-.159 5.777.265 9.487 1.537zm-20.67 35.033c-2.014-1.06-.371-4.187 1.696-3.127 8.162 4.346 19.239 3.233 19.239-6.572 0-7.261-9.54-8.586-12.243-10.759-4.24-3.339-2.014-12.72 11.183-7.367 2.067.848.795 4.134-1.378 3.233-8.003-3.233-9.381.053-7.632 1.431 1.961 1.484 13.568 3.604 13.568 13.462 0 9.699-8.586 14.257-18.497 11.872-1.802-.371-3.869-1.06-5.936-2.173zm58.247205-4.505h-3.498c-.954 0-1.749-.795-1.749-1.802 0-.954.795-1.749 1.749-1.749h3.498c5.247 0 8.586-3.869 8.586-8.904 0-4.982-3.339-8.851-8.586-8.851h-1.749v12.402c0 1.007-.742 1.802-1.749 1.802-.954 0-1.749-.795-1.749-1.802v-14.151c0-1.007.795-1.802 1.749-1.802h3.498c7.261 0 12.084 5.459 12.084 12.402 0 6.996-4.823 12.455-12.084 12.455zm-8.798 5.3c0 .954-.795 1.749-1.802 1.749-.954 0-1.749-.795-1.749-1.749v-35.457c0-.954.795-1.749 1.749-1.749h10.6c11.501 0 19.504 8.268 19.504 19.451 0 11.236-8.003 19.504-19.504 19.504h-3.551c-.954 0-1.749-.795-1.749-1.749 0-1.007.795-1.802 1.749-1.802h3.551c9.487 0 15.953-6.678 15.953-15.953 0-9.222-6.466-15.9-15.953-15.9h-8.798zm55.517602-30.104c1.007 0 1.802.742 1.802 1.749 0 .954-.795 1.749-1.802 1.749h-9.487v3.551h6.201c1.007 0 1.802.795 1.802 1.802 0 .954-.795 1.749-1.802 1.749h-7.95c-1.007 0-1.802-.795-1.802-1.749v-7.102c0-1.007.795-1.749 1.802-1.749zm-3.286 14.151c1.007 0 1.802.795 1.802 1.749 0 1.007-.795 1.802-1.802 1.802h-6.201v3.498h9.487c1.007 0 1.802.795 1.802 1.802 0 .954-.795 1.749-1.802 1.749h-11.236c-1.007 0-1.802-.795-1.802-1.749v-7.102c0-.954.795-1.749 1.802-1.749zm3.286 14.151c1.007 0 1.802.795 1.802 1.802 0 .954-.795 1.749-1.802 1.749h-18.338c-.954 0-1.749-.795-1.749-1.749v-35.457c0-.954.795-1.749 1.749-1.749h18.338c1.007 0 1.802.795 1.802 1.749 0 1.007-.795 1.802-1.802 1.802h-16.536v31.853zm35.006603-34.609c2.12.901.795 4.134-1.378 3.286-2.12-.901-4.346-1.325-6.625-1.325-9.54 0-16.324 7.208-16.324 16.536.053 8.321 5.618 16.43 16.483 16.43 2.279 0 4.399-.477 6.466-1.272 2.173-.901 3.498 2.385 1.378 3.233-2.491 1.007-5.141 1.537-7.844 1.537-13.197 0-19.875-9.911-19.928-19.822-.053-10.07 6.572-20.14 19.928-20.14 2.703 0 5.353.53 7.844 1.537zm-2.438 26.288c2.014-1.06 3.71 1.961 1.643 3.074-2.279 1.325-4.77 1.908-7.208 1.855-6.466-.106-12.19-4.876-12.19-12.72 0-10.918 10.812-15.741 19.398-10.918 2.067 1.06.371 4.187-1.643 3.021-6.148-3.392-14.257-.371-14.257 7.897 0 5.83 4.081 9.01 8.639 9.169 1.855.053 3.816-.371 5.618-1.378zm19.848602 1.272c-.954 0-1.749-.795-1.749-1.802s.795-1.749 1.749-1.749h2.544l-1.59-3.922c-.318-.901.106-1.961.954-2.279.954-.371 1.961.053 2.332.901l2.597 6.36c.106.212.159.424.159.689 0 1.007-.848 1.802-1.855 1.802zm-2.597 9.169c-.318.901-1.325 1.325-2.279 1.007-.901-.424-1.325-1.431-.954-2.332l1.272-3.233c.318-.636 1.007-1.113 1.643-1.113h10.971c.795 0 1.484.583 1.696 1.272l1.272 3.074c.318.901-.053 1.908-.954 2.332-.901.318-1.961-.053-2.332-1.007l-.848-2.067h-8.586zm-7.579 0c-.424.901-1.431 1.325-2.332 1.007-.848-.424-1.325-1.431-1.007-2.332l14.469-36.146c.371-.954 1.431-1.378 2.279-1.007.53.159.848.583 1.007 1.007l14.416 36.146c.371.901-.053 1.908-.954 2.332-.901.318-1.961-.106-2.332-1.007l-12.773-32.171zm56.736602-2.12c1.007 0 1.749.795 1.749 1.802 0 .954-.742 1.749-1.749 1.749h-20.617c-1.007 0-1.802-.795-1.802-1.749v-35.457c0-.954.795-1.749 1.802-1.749.954 0 1.749.795 1.749 1.749v33.655zm-15.317-33.655c0-.954.795-1.749 1.749-1.749 1.007 0 1.802.795 1.802 1.749v26.553h11.766c1.007 0 1.749.795 1.749 1.802 0 .954-.742 1.749-1.749 1.749h-13.568c-.954 0-1.749-.795-1.749-1.749zm34.264603 35.457c0 .954-.795 1.749-1.749 1.749-1.007 0-1.802-.795-1.802-1.749v-35.457c0-.954.795-1.749 1.802-1.749.954 0 1.749.795 1.749 1.749zm-7.102 0c0 .954-.795 1.749-1.749 1.749-1.007 0-1.802-.795-1.802-1.749v-35.457c0-.954.795-1.749 1.802-1.749.954 0 1.749.795 1.749 1.749z" fill="#313131"/></g></svg>